<svg width="382" height="292" viewBox="0 0 382 292" fill="none" xmlns="http://www.w3.org/2000/svg">
<path fill-rule="evenodd" clip-rule="evenodd" d="M9.98241 9.67822C16.0045 3.76561 24.1051 0.5
32.4856 0.5H119.399C124.538 0.5 129.416 2.75823 132.741 6.67572L163.714 43.1667H349.244C357.625
43.1667 365.725 46.4323 371.747 52.3449C377.78 58.2682 381.23 66.3709 381.23 74.8889V138.889C381.23
148.554 373.395 156.389 363.73 156.389C354.065 156.389 346.23 148.554 346.23
138.889V78.1667H155.613C150.475 78.1667 145.596 75.9084 142.271 71.991L111.299
35.5H35.5V256.5H194.069C203.734 256.5 211.569 264.335 211.569 274C211.569 283.665 203.734 291.5
194.069 291.5H32.4856C24.1051 291.5 16.0045 288.234 9.98241 282.322C3.94939 276.398 0.5 268.296 0.5
259.778V32.2222C0.5 23.7043 3.94941 15.6015 9.98241 9.67822Z" fill="#4d5b77" fill-opacity="0.85"/>
<path fill-rule="evenodd" clip-rule="evenodd" d="M315.327 169.295C322.098 162.399 333.178 162.297
340.075 169.068L376.289 204.624C379.64 207.914 381.528 212.414 381.528 217.111C381.528 221.808
379.64 226.308 376.289 229.598L340.075 265.154C333.178 271.925 322.098 271.824 315.327
264.927C308.556 258.03 308.658 246.95 315.554 240.179L339.05 217.111L315.554 194.043C308.658 187.272
308.556 176.192 315.327 169.295Z" fill="#4d5b77" fill-opacity="0.85"/>
<path fill-rule="evenodd" clip-rule="evenodd" d="M282.358 169.295C289.129 176.192 289.028 187.272
282.131 194.043L258.636 217.111L282.131 240.179C289.028 246.95 289.129 258.03 282.358
264.927C275.587 271.824 264.507 271.925 257.61 265.154L221.396 229.598C218.045 226.308 216.157
221.808 216.157 217.111C216.157 212.414 218.045 207.914 221.396 204.624L257.61 169.068C264.507
162.297 275.587 162.399 282.358 169.295Z" fill="#4d5b77" fill-opacity="0.85"/>
</svg>
