<svg width="45" height="88" viewBox="0 0 45 88" fill="none" xmlns="http://www.w3.org/2000/svg">
<g id="Group 33">
<path id="Background Arrow-Down" d="M0 22C0 9.84974 10.0736 0 22.5 0C34.9264 0 45 9.84974 45 22V66C45 78.1503 34.9264 88 22.5 88C10.0736 88 0 78.1503 0 66V22Z" fill="#4d5b77" fill-opacity="0.7"/>
<path id="Arrow-Down (Stroke)" fill-rule="evenodd" clip-rule="evenodd" d="M23 11C24.6569 11 26 12.3431 26 14V66.7574L35.8787 56.8787C37.0503 55.7071 38.9497 55.7071 40.1213 56.8787C41.2929 58.0503 41.2929 59.9497 40.1213 61.1213L23 78.2426L5.87868 61.1213C4.70711 59.9497 4.70711 58.0503 5.87868 56.8787C7.05025 55.7071 8.94975 55.7071 10.1213 56.8787L20 66.7574V14C20 12.3431 21.3431 11 23 11Z" fill="#384561"/>
</g>
</svg>
