<svg width="36" height="35" viewBox="0 0 36 35" fill="none" xmlns="http://www.w3.org/2000/svg">
<path d="M34.345 15.939L19.0613 0.658789C18.6375 0.23687 18.0638 0 17.4657 0C16.8677 0 16.294 0.23687 15.8701 0.658789L12.7035 3.82896L16.7279 7.85514C17.2027 7.6947 17.713 7.67053 18.2008 7.78537C18.6887 7.90021 19.1346 8.14947 19.488 8.50487C19.8414 8.86027 20.0881 9.30759 20.2002 9.79609C20.3123 10.2846 20.2852 10.7947 20.1221 11.2686L23.9978 15.1495C24.5716 14.9482 25.1968 14.9481 25.7706 15.1493C26.3445 15.3505 26.8328 15.741 27.1552 16.2565C27.4777 16.7721 27.6151 17.382 27.5449 17.9861C27.4746 18.5901 27.201 19.1522 26.7688 19.5801C25.7203 20.6304 24.0275 20.6304 22.9772 19.5801C22.6041 19.2066 22.3493 18.7315 22.2444 18.2142C22.1394 17.6968 22.1892 17.16 22.3873 16.6707L18.7567 13.0594V22.5769C19.0123 22.7012 19.2574 22.8728 19.4692 23.0846C19.9697 23.5886 20.2506 24.2701 20.2506 24.9804C20.2506 25.6907 19.9697 26.3722 19.4692 26.8762C19.2194 27.1263 18.9228 27.3248 18.5963 27.4602C18.2698 27.5956 17.9198 27.6653 17.5664 27.6653C17.2129 27.6653 16.8629 27.5956 16.5364 27.4602C16.2099 27.3248 15.9133 27.1263 15.6636 26.8762C15.4144 26.6277 15.2167 26.3325 15.0818 26.0075C14.9469 25.6825 14.8774 25.334 14.8774 24.9821C14.8774 24.6302 14.9469 24.2818 15.0818 23.9568C15.2167 23.6318 15.4144 23.3366 15.6636 23.0881C15.9296 22.8255 16.2272 22.6259 16.5458 22.4947V12.8844C16.2185 12.7504 15.921 12.5528 15.6705 12.3032C15.42 12.0535 15.2215 11.7567 15.0864 11.4298C14.9513 11.103 14.8823 10.7526 14.8834 10.3989C14.8845 10.0453 14.9557 9.69532 15.0929 9.36933L11.1368 5.39392L0.656442 15.8655C-0.218814 16.7477 -0.218814 18.1762 0.656442 19.0584L15.9402 34.3386C16.1493 34.5483 16.3977 34.7146 16.6712 34.8281C16.9447 34.9416 17.2379 35 17.534 35C17.8301 35 18.1233 34.9416 18.3968 34.8281C18.6703 34.7146 18.9187 34.5483 19.1278 34.3386L34.3398 19.1284C34.5504 18.9199 34.7178 18.6717 34.8321 18.3982C34.9465 18.1247 35.0056 17.8313 35.0061 17.5348C35.0066 17.2384 34.9484 16.9447 34.835 16.6709C34.7215 16.397 34.555 16.1483 34.345 15.939Z" fill="#A3AABC"/>
</svg>
