<svg width="16" height="35" viewBox="0 0 16 35" fill="none" xmlns="http://www.w3.org/2000/svg">
<path d="M15.4344 13.9344C13.591 5.79688 9.23353 3.12229 8.76541 2.1C8.35707 1.52542 7.99249 0.70875 7.69353 0C7.64103 0.721875 7.61333 0.998958 6.93083 1.72667C5.87645 2.55208 0.458741 7.09625 0.0183239 16.3392C-0.392926 24.9608 6.24541 30.0985 7.14666 30.7533L7.24874 30.8263C7.43642 32.2142 7.59686 33.6057 7.72999 35H8.43145C8.59758 33.4952 8.84587 32.0006 9.1752 30.5229C9.78333 30.0913 10.056 29.8477 10.4148 29.5123C12.1137 27.9406 13.4638 26.0299 14.378 23.9037C15.2921 21.7775 15.7499 19.4832 15.7217 17.169C15.7362 15.9819 15.5715 14.7452 15.4344 13.9344ZM7.6527 25.8854C7.6527 25.8854 7.6527 13.7944 8.05374 13.7958C8.36437 13.7958 8.76832 29.3927 8.76832 29.3927C8.2127 29.3271 7.6527 26.826 7.6527 25.8854Z" fill="#A3AABC"/>
</svg>
