<svg width="36" height="35" viewBox="0 0 36 35" fill="none" xmlns="http://www.w3.org/2000/svg">
<path d="M25.976 32.8146C25.8458 32.8835 25.8568 32.9054 25.9815 32.842C26.0199 32.8263 26.0551 32.8037 26.0854 32.7753C26.0854 32.7523 26.0854 32.7523 25.976 32.8146ZM26.2385 32.6725C26.1762 32.7239 26.1762 32.7239 26.2505 32.69C26.278 32.6771 26.3032 32.6597 26.3249 32.6385C26.3249 32.609 26.3074 32.6156 26.2385 32.6725ZM26.4091 32.5696C26.3468 32.621 26.3468 32.621 26.4212 32.5871C26.4488 32.574 26.4739 32.5562 26.4955 32.5346C26.4955 32.5073 26.478 32.5128 26.4091 32.5696ZM26.5819 32.4679C26.5196 32.5193 26.5196 32.5193 26.5918 32.4843C26.6323 32.4624 26.6662 32.4395 26.6662 32.4329C26.6662 32.4056 26.6487 32.411 26.5819 32.4679ZM26.8149 32.3137C26.6957 32.3935 26.6541 32.4449 26.7635 32.3881C26.8368 32.3432 26.9615 32.2448 26.9396 32.2448C26.8926 32.2623 26.8532 32.2918 26.8138 32.3137H26.8149ZM16.3552 0.00803926C16.2753 0.0135081 16.0358 0.0353836 15.8258 0.0528839C10.8513 0.503518 6.19731 3.18107 3.24741 7.30569C1.61721 9.56788 0.557559 12.1904 0.158597 14.9501C0.0175004 15.9126 0 16.197 0 17.5018C0 18.8056 0.0175004 19.0856 0.158597 20.0481C1.11127 26.6228 5.78824 32.142 12.1277 34.1873C13.2686 34.5516 14.464 34.8031 15.8258 34.9573C16.3552 35.0142 18.6444 35.0142 19.1738 34.9573C21.5276 34.6948 23.515 34.114 25.4816 33.1111C25.7835 32.9579 25.8404 32.9175 25.7999 32.8835C24.8405 31.6154 23.8893 30.3411 22.9462 29.0608L20.1495 25.284L16.6461 20.0941C15.4808 18.3564 14.3035 16.6267 13.1143 14.9052C13.1023 14.9052 13.087 17.212 13.0804 20.0252C13.0684 24.9526 13.0684 25.1528 13.006 25.2665C12.9463 25.4039 12.8391 25.5153 12.7042 25.5804C12.5959 25.6318 12.4985 25.6428 11.9812 25.6428H11.3895L11.2352 25.5465C11.1386 25.4846 11.0601 25.3981 11.0077 25.2961L10.9333 25.1418L10.9388 18.2828L10.9508 11.4237L11.0591 11.287C11.1283 11.203 11.2134 11.1334 11.3096 11.0825C11.4529 11.0136 11.5098 11.0026 12.1015 11.0026C12.796 11.0026 12.9109 11.03 13.0935 11.2301C14.5128 13.341 15.9197 15.46 17.3144 17.5871C19.5884 21.0347 22.6925 25.739 24.2183 28.0469L26.9932 32.2459L27.1299 32.1551C28.4635 31.2689 29.672 30.2076 30.723 28.9996C32.9275 26.4763 34.358 23.3711 34.8432 20.0558C34.9843 19.0933 35.0018 18.8078 35.0018 17.504C35.0018 16.1991 34.9843 15.9202 34.8432 14.9577C33.8905 8.38305 29.2136 2.86388 22.8741 0.817431C21.6893 0.44218 20.4698 0.186781 19.234 0.0550715C18.9026 0.0211645 16.6406 -0.019305 16.3563 0.0102268L16.3552 0.00803926ZM23.5161 10.5925C23.5975 10.6324 23.6701 10.6882 23.7296 10.7566C23.7891 10.825 23.8344 10.9045 23.8628 10.9906C23.8924 11.0825 23.8978 12.9846 23.8924 17.2689L23.8803 23.4202L22.7986 21.7577L21.7103 20.0941V15.6282C21.7103 12.733 21.7223 11.1098 21.7376 11.03C21.7912 10.8469 21.914 10.6919 22.08 10.5979C22.2156 10.529 22.2681 10.5236 22.8095 10.5236C23.3159 10.5236 23.4013 10.529 23.515 10.5925H23.5161Z" fill="#A3AABC"/>
</svg>
