<svg width="32" height="35" viewBox="0 0 32 35" fill="none" xmlns="http://www.w3.org/2000/svg">
<path d="M15.5815 35C15.114 35 14.6395 34.875 14.2278 34.6389L9.92249 32.1039C9.28053 31.7427 9.59453 31.6177 9.80387 31.5483C10.6621 31.2496 10.8366 31.1871 11.7507 30.6662C11.8484 30.6107 11.974 30.6315 12.0717 30.694L15.3792 32.6456C15.4978 32.715 15.6653 32.715 15.7769 32.6456L28.665 25.2421C28.7836 25.1726 28.8604 25.0337 28.8604 24.8948V10.0878C28.8604 9.94196 28.7836 9.81 28.658 9.7336L15.7769 2.33704C15.6583 2.26759 15.4978 2.26759 15.3792 2.33704L2.50505 9.74055C2.37944 9.81 2.30269 9.9489 2.30269 10.0948V24.8948C2.30269 25.0337 2.37944 25.1726 2.50505 25.2351L6.03583 27.2631C7.95474 28.2146 9.12702 27.0964 9.12702 25.9644V11.3518C9.12702 11.1435 9.29449 10.9837 9.50382 10.9837H11.1366C11.339 10.9837 11.5134 11.1435 11.5134 11.3518V25.9713C11.5134 28.5132 10.1179 29.9717 7.69656 29.9717C6.94993 29.9717 6.36379 29.9717 4.73098 29.1661L1.3537 27.2284C0.51636 26.7492 0 25.8533 0 24.8879V10.0878C0 9.12938 0.51636 8.22651 1.3537 7.7473L14.2278 0.343784C15.0442 -0.114595 16.1258 -0.114595 16.9352 0.343784L29.8233 7.75424C30.6606 8.23345 31.177 9.12938 31.177 10.0948V24.8948C31.177 25.8533 30.6606 26.7492 29.8233 27.2353L16.9352 34.6389C16.5235 34.875 16.056 35 15.5815 35ZM25.9855 20.4083C25.9855 17.6372 24.1015 16.901 20.145 16.3801C16.1397 15.8523 15.735 15.5814 15.735 14.6508C15.735 13.8798 16.0769 12.852 19.0425 12.852C21.6871 12.852 22.664 13.4215 23.0687 15.1994C23.1036 15.3661 23.2571 15.4911 23.4316 15.4911H25.1063C25.2109 15.4911 25.3086 15.4494 25.3784 15.3731C25.4482 15.2967 25.4831 15.1925 25.4761 15.0883C25.2179 12.0255 23.1734 10.6017 19.0425 10.6017C15.3652 10.6017 13.1742 12.1436 13.1742 14.7341C13.1742 17.5399 15.3582 18.3178 18.882 18.665C23.1036 19.0748 23.4316 19.6929 23.4316 20.5194C23.4316 21.9501 22.2733 22.5613 19.5589 22.5613C16.1467 22.5613 15.4001 21.707 15.1489 20.0193C15.121 19.8388 14.9675 19.7068 14.7791 19.7068H13.1114C12.902 19.7068 12.7415 19.8735 12.7415 20.0749C12.7415 22.2348 13.9208 24.8115 19.5659 24.8115C23.6409 24.8045 25.9855 23.2002 25.9855 20.4083Z" fill="#A3AABC"/>
</svg>
