<svg width="36" height="35" viewBox="0 0 36 35" fill="none" xmlns="http://www.w3.org/2000/svg">
<path d="M17.3746 0C8.4875 0 9.04167 3.87333 9.04167 3.87333L9.05187 7.88667H17.5306V9.09125H5.6875C5.6875 9.09125 0 8.44229 0 17.4548C0 26.4673 4.96271 26.1465 4.96271 26.1465H7.92312V21.9654C7.92312 21.9654 7.76417 16.9779 12.8085 16.9779H21.2173C21.2173 16.9779 25.9423 17.0538 25.9423 12.3871V4.66958C25.9423 4.66958 26.6583 0 17.3731 0H17.3746ZM12.6992 2.69792C13.5421 2.69792 14.2246 3.38333 14.2246 4.23208C14.2246 5.07938 13.5421 5.76479 12.6992 5.76479C11.8548 5.76479 11.1737 5.07938 11.1737 4.23208C11.1737 3.38333 11.8548 2.69792 12.6992 2.69792Z" fill="#A3AABC"/>
<path d="M17.6265 35C26.5106 35 25.9565 31.1266 25.9565 31.1266L25.9463 27.1133H17.4675V25.9087H29.3135C29.3135 25.9087 35.001 26.5577 35.001 17.5452C35.001 8.5327 30.0369 8.85353 30.0369 8.85353H27.0765V13.0346C27.0765 13.0346 27.2354 18.0221 22.191 18.0221H13.7838C13.7838 18.0221 9.05875 17.9462 9.05875 22.6129V30.3304C9.05875 30.3304 8.34125 35 17.6265 35ZM22.3019 32.3021C21.4575 32.3021 20.7765 31.6166 20.7765 30.7679C20.7765 29.9206 21.4575 29.2352 22.3019 29.2352C23.1448 29.2352 23.8273 29.9206 23.8273 30.7679C23.8273 31.6166 23.1448 32.3021 22.3019 32.3021Z" fill="#A3AABC"/>
</svg>
