<svg width="40" height="35" viewBox="0 0 40 35" fill="none" xmlns="http://www.w3.org/2000/svg">
<path d="M19.7105 13.9924C17.7727 13.9924 16.1947 15.5671 16.1947 17.5008C16.1947 19.4345 17.7727 21.0093 19.7105 21.0093C21.6483 21.0093 23.2264 19.4345 23.2264 17.5008C23.2264 15.5671 21.6483 13.9924 19.7105 13.9924ZM9.86758 24.4735L9.09148 24.2817C3.3163 22.8213 0 20.3504 0 17.4947C0 14.639 3.31753 12.1681 9.09148 10.7077L9.86758 10.5159L10.0856 11.2842C10.6715 13.2966 11.4205 15.2581 12.3252 17.1493L12.4915 17.4947L12.3252 17.8463C11.4186 19.7366 10.6695 21.6982 10.0856 23.7113L9.86758 24.4735ZM8.733 12.5C4.34371 13.7293 1.64952 15.6175 1.64952 17.4947C1.64952 19.3718 4.34494 21.2527 8.733 22.4894C9.27091 20.7839 9.92028 19.1154 10.6769 17.4947C9.91923 15.8744 9.26982 14.2059 8.733 12.5ZM29.5535 24.4735L29.3354 23.7051C28.7506 21.6944 28.0015 19.7349 27.0958 17.8463L26.9295 17.4947L27.0958 17.1431C28.0024 15.2528 28.7515 13.2911 29.3354 11.2781L29.5535 10.5159L30.3296 10.7077C36.1048 12.1681 39.4211 14.639 39.4211 17.4947C39.4211 20.3504 36.1035 22.8213 30.3296 24.2817L29.5535 24.4735ZM28.7441 17.4947C29.5033 19.1143 30.1527 20.783 30.6881 22.4894C35.0835 21.2539 37.7715 19.3718 37.7715 17.4947C37.7715 15.6175 35.0761 13.7367 30.6881 12.5C30.1489 14.2051 29.4995 15.8735 28.7441 17.4947ZM8.71944 12.4939L8.5014 11.7256C6.87774 6.01421 7.37174 1.91693 9.85526 0.48848C12.2932 -0.914158 16.2008 0.744175 20.3006 4.94471L20.8587 5.51511L20.3006 6.08551C18.8447 7.59709 17.5144 9.22431 16.3228 10.9511L16.0986 11.2646L15.713 11.2965C13.6169 11.4616 11.5376 11.7959 9.49555 12.296L8.71944 12.4939ZM11.8374 1.62927C11.3951 1.62927 11.0034 1.71901 10.6757 1.91079C9.0459 2.85243 8.75763 6.11747 9.8799 10.5221C11.631 10.1312 13.4059 9.85524 15.1931 9.69598C16.2221 8.23358 17.3472 6.84099 18.5612 5.5274C16.0013 3.03683 13.5756 1.62805 11.8374 1.62805V1.62927ZM27.5898 34.9988C27.5836 34.9988 27.5836 34.9988 27.5898 34.9988C25.248 34.9988 22.2384 33.2445 19.1204 30.0434L18.5624 29.473L19.1204 28.9026C20.5764 27.3911 21.9067 25.7638 23.0983 24.0371L23.3163 23.7236L23.7019 23.6855C25.8007 23.5259 27.8825 23.1916 29.9255 22.686L30.7016 22.4943L30.9197 23.2626C32.5433 28.9739 32.0493 33.0651 29.5658 34.4923C28.9653 34.8367 28.2822 35.0113 27.5898 34.9975V34.9988ZM20.8587 29.4607C23.4186 31.9513 25.8442 33.3601 27.5824 33.3601H27.5886C28.0247 33.3601 28.4164 33.2642 28.7441 33.0786C30.3739 32.1369 30.6696 28.8719 29.5399 24.4673C27.7892 24.8586 26.0141 25.1325 24.2267 25.2873C23.1978 26.7516 22.0726 28.1463 20.8587 29.462V29.4607ZM30.7016 12.4939L29.9255 12.296C27.881 11.7975 25.7999 11.4633 23.7019 11.2965L23.3163 11.2646L23.0983 10.9511C21.9067 9.22431 20.5764 7.59709 19.1204 6.08551L18.5624 5.51511L19.1204 4.94471C23.2202 0.744175 27.1278 -0.914158 29.5658 0.48848C32.0493 1.9157 32.5433 6.01421 30.9197 11.7256L30.7016 12.4939ZM24.2279 9.69598C26.0152 9.85481 27.7901 10.1308 29.5411 10.5221C30.6708 6.11747 30.3752 2.8512 28.7453 1.91079C27.1217 0.976514 24.0678 2.40988 20.8599 5.52863C22.0705 6.84504 23.1955 8.23741 24.2279 9.69721V9.69598ZM11.8374 34.9988C11.1438 35.0111 10.4577 34.839 9.85526 34.4935C7.37174 33.0663 6.87774 28.9739 8.5014 23.2638L8.71944 22.4955L9.49555 22.6873C11.3951 23.1679 13.4869 23.4998 15.713 23.6867L16.0986 23.7248L16.3166 24.0383C17.5082 25.7651 18.8385 27.3923 20.2945 28.9039L20.8525 29.4743L20.2945 30.0447C17.1827 33.2458 14.1731 35 11.8374 35V34.9988ZM9.88113 24.4673C8.75147 28.8719 9.04713 32.1382 10.6769 33.0786C12.3006 34.0006 15.3483 32.5795 18.5624 29.4607C17.3484 28.1451 16.2233 26.7504 15.1944 25.286C13.4069 25.1318 11.6318 24.8578 9.88113 24.4661V24.4673ZM19.7105 25.4975C18.3567 25.4975 16.9708 25.4397 15.5787 25.3241L15.1931 25.2922L14.9689 24.9726C14.1826 23.8451 13.444 22.6853 12.7552 21.4961C12.0649 20.3068 11.425 19.0891 10.8371 17.8463L10.6708 17.4947L10.8371 17.1431C12.0148 14.6579 13.3968 12.2743 14.9689 10.0168L15.1931 9.69721L15.5787 9.66525C18.3284 9.43414 21.0927 9.43414 23.8423 9.66525L24.2279 9.69721L24.4521 10.0168C26.0263 12.2731 27.4083 14.6568 28.584 17.1431L28.7503 17.4947L28.584 17.8463C27.4107 20.3338 26.0285 22.7178 24.4521 24.9726L24.2279 25.2922L23.8423 25.3241C22.4681 25.4389 21.0896 25.4967 19.7105 25.4975ZM16.1047 23.7174C18.5304 23.9031 20.8907 23.9031 23.3225 23.7174C24.6787 21.7357 25.884 19.6552 26.9283 17.4935C25.8884 15.3282 24.6808 13.2472 23.3163 11.2695C20.9161 11.0839 18.505 11.0839 16.1047 11.2695C14.7393 13.2466 13.5316 15.3276 12.4928 17.4935C13.5373 19.6563 14.7448 21.7369 16.1047 23.7174Z" fill="#A3AABC"/>
</svg>
