<svg width="35" height="35" viewBox="0 0 35 35" fill="none" xmlns="http://www.w3.org/2000/svg">
<path fill-rule="evenodd" clip-rule="evenodd" d="M17.5 0C20.9612 0 24.3446 1.02636 27.2225 2.94928C30.1003 4.87221 32.3433 7.60533 33.6679 10.803C34.9924 14.0007 35.339 17.5194 34.6637 20.9141C33.9885 24.3087 32.3218 27.4269 29.8744 29.8744C27.4269 32.3218 24.3087 33.9885 20.9141 34.6637C17.5194 35.339 14.0007 34.9924 10.803 33.6679C7.60533 32.3433 4.87221 30.1003 2.94928 27.2225C1.02636 24.3446 0 20.9612 0 17.5C0 12.8587 1.84374 8.40752 5.12563 5.12563C8.40752 1.84374 12.8587 0 17.5 0Z" fill="#A3AABC"/>
<path d="M28.4777 7.49001C27.6852 4.38251 22.5315 3.36501 17.654 5.09251C14.5994 6.11895 11.7772 7.73776 9.34899 9.85626C6.66274 12.3688 6.23399 14.5563 6.41024 15.47C7.03524 18.695 11.4515 20.8025 13.2677 22.3663V22.375C12.7327 22.6388 8.81274 24.625 7.89274 26.65C6.92524 28.79 8.04649 30.325 8.79024 30.5313C9.90689 30.8001 11.0797 30.7126 12.1441 30.2811C13.2085 29.8495 14.1111 29.0956 14.7252 28.125C15.2328 27.3387 15.5504 26.4449 15.6528 25.5146C15.7552 24.5843 15.6396 23.6429 15.3152 22.765C16.1901 22.5427 17.0995 22.4905 17.994 22.6113C21.064 22.97 21.6665 24.8863 21.5515 25.6888C21.4974 25.9744 21.3824 26.2451 21.2144 26.4823C21.0464 26.7196 20.8292 26.9179 20.5777 27.0638C20.3627 27.1975 20.2965 27.2425 20.3152 27.3425C20.3415 27.4863 20.4402 27.4813 20.624 27.45C21.0853 27.3047 21.4918 27.0231 21.7899 26.6422C22.0881 26.2613 22.2638 25.799 22.294 25.3163C22.3677 23.4413 20.5665 21.3338 17.3765 21.3875C16.45 21.3611 15.5255 21.4878 14.6402 21.7625C14.5959 21.7119 14.5509 21.6619 14.5052 21.6125C12.5327 19.5088 8.88774 18.02 9.04149 15.1913C9.09774 14.1625 9.45524 11.455 16.0415 8.17001C21.4415 5.47876 25.764 6.22001 26.5115 7.86126C27.579 10.2063 24.2015 14.5625 18.594 15.1913C17.9742 15.3171 17.334 15.3017 16.721 15.1464C16.108 14.991 15.5378 14.6996 15.0527 14.2938C14.7577 13.9688 14.714 13.955 14.604 14.015C14.4252 14.1138 14.539 14.4013 14.604 14.5713C14.8187 14.9582 15.1085 15.2984 15.4565 15.5719C15.8044 15.8454 16.2035 16.0466 16.6302 16.1638C18.835 16.6428 21.1346 16.4154 23.2027 15.5138C26.604 14.2025 29.2565 10.5463 28.4777 7.49001ZM14.0227 23.3288C14.271 24.1846 14.2584 25.0951 13.9865 25.9438C13.9573 26.0321 13.9252 26.1196 13.8902 26.2063C13.8552 26.2929 13.8173 26.3763 13.7765 26.4563C13.5661 26.8867 13.2936 27.2838 12.9677 27.635C11.9515 28.7438 10.5302 29.1638 9.92149 28.81C9.26399 28.4288 9.59274 26.865 10.7715 25.6188C11.6772 24.7231 12.7215 23.9794 13.864 23.4163L14.0227 23.3288Z" fill="#FFFAF6"/>
</svg>
